#!OML:ASF X:\für Bonn\!DataBase\2005_08_12_Daniel\c3d\Daniel.ASF
:FULLY-SPECIFIED
:DEGREES
47
root 9.29788 15.8096 -0.12454 -735.427 -70.433 731.738
lowerback 2.49662 -14.3354 -8.5406
upperback 0.885487 -19.3103 -1.01021
thorax 1.93877 -9.73661 3.13145
lowerneck 4.26282 8.83912 -0.399848
upperneck 10.3319 11.7728 -4.01294
head 2.82692 5.57654 -1.07133
rclavicle 7.73024e-014 -1.28216e-014
rhumerus -60.7424 -18.0672 -55.6088
rradius 20.5357
rwrist 21.4624
rhand -17.9738 10.4411
rfingers 7.12502
rthumb 8.29559 -19.3761
lclavicle 7.73024e-014 -1.28216e-014
lhumerus -35.7871 21.0844 77.7904
lradius 93.807
lwrist 189.071
lhand -12.3684 18.3195
lfingers 7.12502
lthumb 13.702 47.8484
rfemur -43.5627 -4.28029 8.64241
rtibia 46.6801
rfoot -3.65634 -1.76289
rtoes -5.64751
lfemur 25.9869 -11.8438 -20.3413
ltibia 31.5435
lfoot -22.2778 -8.22998
ltoes -19.3972
48
root 9.09589 15.8229 -0.144401 -734.988 -70.6972 730.94
lowerback 2.61769 -14.4324 -8.18721
upperback 0.823207 -19.4456 -0.888986
thorax 1.75346 -9.79521 3.13141
lowerneck 4.06026 8.97179 -0.251645
upperneck 10.6854 11.9868 -4.31961
head 3.02381 5.66156 -1.1712
rclavicle -2.49444e-014 -3.47873e-015
rhumerus -60.3249 -18.1097 -55.5375
rradius 21.1651
rwrist 21.0861
rhand -18.3019 10.8814
rfingers 7.12502
rthumb 7.979 -18.948
lclavicle -2.49444e-014 -3.47873e-015
lhumerus -37.0325 21.1077 77.7031
lradius 93.226
lwrist 188.45
lhand -12.8545 18.2531
lfingers 7.12502
lthumb 13.2334 47.813
rfemur -43.1553 -4.47504 9.42022
rtibia 47.5502
rfoot -3.4776 -1.25669
rtoes -6.07603
lfemur 25.3668 -11.619 -19.7955
ltibia 33.6068
lfoot -19.8464 -8.19948
ltoes -19.358
49
root 8.89734 15.836 -0.164418 -734.514 -70.9854 730.087
lowerback 2.73162 -14.4989 -7.80747
upperback 0.802801 -19.5365 -0.799864
thorax 1.59067 -9.83351 3.08625
lowerneck 3.85925 9.08228 0.0109229
upperneck 11.0379 12.1777 -4.65286
head 3.2329 5.73829 -1.29865
rclavicle -2.02624e-013 2.38542e-015
rhumerus -59.8431 -18.1171 -55.6877
rradius 21.8544
rwrist 20.703
rhand -18.7352 11.4567
rfingers 7.12502
rthumb 7.56076 -18.3881
lclavicle -2.02624e-013 2.38542e-015
lhumerus -38.2681 21.0764 77.5726
lradius 92.8209
lwrist 187.827
lhand -13.2174 17.9804
lfingers 7.12502
lthumb 12.8837 47.5628
rfemur -42.6654 -4.58649 10.1835
rtibia 48.3224
rfoot -3.4952 -0.805211
rtoes -6.50229
lfemur 24.5447 -11.4027 -19.2772
ltibia 36.0447
lfoot -16.9315 -8.0401
ltoes -18.6782
50
root 8.70321 15.8497 -0.182358 -733.963 -71.3085 729.101
lowerback 2.87036 -14.5456 -7.35727
upperback 0.820228 -19.5992 -0.716036
thorax 1.42611 -9.85871 3.01056
lowerneck 3.67266 9.1896 0.213562
upperneck 11.365 12.3618 -4.97153
head 3.42836 5.8096 -1.41385
rclavicle 1.74365e-013 -1.61016e-014
rhumerus -59.2207 -17.8191 -56.3214
rradius 22.6679
rwrist 20.0237
rhand -19.3016 12.0055
rfingers 7.12502
rthumb 7.01399 -17.8583
lclavicle 1.74365e-013 -1.61016e-014
lhumerus -39.4601 21.0421 77.4448
lradius 92.5082
lwrist 187.305
lhand -13.41 17.6028
lfingers 7.12502
lthumb 12.6979 47.1968
rfemur -42.0434 -4.61344 10.9635
rtibia 48.9694
rfoot -3.63528 -0.402048
rtoes -6.6136
lfemur 23.5661 -11.1328 -18.7273
ltibia 38.8148
lfoot -13.8667 -7.79013
ltoes -18.0537
51
root 8.51357 15.8708 -0.199863 -733.184 -71.692 727.862
lowerback 3.0057 -14.5578 -6.80028
upperback 0.875324 -19.6104 -0.642862
thorax 1.25896 -9.85875 2.87774
lowerneck 3.50784 9.27617 0.458304
upperneck 11.6906 12.5197 -5.30039
head 3.62554 5.86882 -1.54166
rclavicle -1.01504e-014 8.74653e-015
rhumerus -58.5087 -17.2457 -57.4159
rradius 23.6071
rwrist 19.0787
rhand -19.9645 12.3993
rfingers 7.12502
rthumb 6.37405 -17.4848
lclavicle -1.01504e-014 8.74653e-015
lhumerus -40.5322 20.9657 77.2725
lradius 92.1787
lwrist 186.97
lhand -13.3526 17.2621
lfingers 7.12502
lthumb 12.7533 46.8526
rfemur -41.2858 -4.52367 11.814
rtibia 49.4399
rfoot -3.85821 -0.0714752
rtoes -6.41426
lfemur 22.3841 -10.788 -18.0869
ltibia 41.9176
lfoot -10.7835 -7.44912
ltoes -17.8484
52
root 8.32856 15.897 -0.215485 -732.205 -72.1083 726.376
lowerback 3.15984 -14.5518 -6.2092
upperback 0.988906 -19.5951 -0.563725
thorax 1.13139 -9.84838 2.7326
lowerneck 3.41215 9.35148 0.774867
upperneck 11.9306 12.6649 -5.68616
head 3.79269 5.92673 -1.70601
rclavicle 1.72371e-013 9.34288e-015
rhumerus -57.6334 -16.5351 -58.7985
rradius 24.5539
rwrist 18.0905
rhand -20.7496 12.6307
rfingers 7.12502
rthumb 5.6161 -17.2748
lclavicle 1.72371e-013 9.34288e-015
lhumerus -41.5556 20.922 77.0717
lradius 91.9188
lwrist 186.833
lhand -13.06 17.0531
lfingers 7.12502
lthumb 13.0354 46.6258
rfemur -40.3671 -4.33394 12.7176
rtibia 49.7301
rfoot -4.16039 0.177212
rtoes -6.0013
lfemur 21.0377 -10.4314 -17.4
ltibia 45.3142
lfoot -7.79113 -6.97882
ltoes -17.7254
53
root 8.14942 15.9261 -0.229246 -731.139 -72.5859 724.797
lowerback 3.33209 -14.4979 -5.65584
upperback 1.13037 -19.5163 -0.486853
thorax 1.02919 -9.80804 2.60322
lowerneck 3.41234 9.39081 1.28953
upperneck 12.1546 12.7713 -6.19189
head 3.964 5.97157 -1.95063
rclavicle 2.821e-013 1.19271e-015
rhumerus -56.6989 -15.695 -60.4131
rradius 25.573
rwrist 17.0638
rhand -21.5675 12.6459
rfingers 7.12502
rthumb 4.82638 -17.2792
lclavicle 2.821e-013 1.19271e-015
lhumerus -42.5697 20.9016 76.8445
lradius 91.7381
lwrist 186.868
lhand -12.5787 17.0487
lfingers 7.12502
lthumb 13.4993 46.5912
rfemur -39.3728 -4.0435 13.6344
rtibia 49.8673
rfoot -4.51694 0.370186
rtoes -5.63165
lfemur 19.4589 -10.002 -16.7044
ltibia 48.9592
lfoot -4.71295 -6.44621
ltoes -16.9298
54
root 7.97703 15.9576 -0.240999 -730.013 -73.1055 723.183
lowerback 3.50035 -14.4021 -5.13608
upperback 1.27363 -19.3814 -0.408424
thorax 0.938574 -9.74013 2.48818
lowerneck 3.53124 9.3962 1.89266
upperneck 12.3447 12.8331 -6.74099
head 4.11319 6.00005 -2.236
rclavicle 2.34653e-013 -1.98785e-015
rhumerus -55.7711 -14.8088 -62.1226
rradius 26.6609
rwrist 16.1026
rhand -22.3624 12.5002
rfingers 7.12502
rthumb 4.05877 -17.4409
lclavicle 2.34653e-013 -1.98785e-015
lhumerus -43.6032 20.8947 76.5768
lradius 91.6449
lwrist 187.144
lhand -12.0379 17.2751
lfingers 7.12502
lthumb 14.0204 46.7822
rfemur -38.3673 -3.71217 14.5476
rtibia 49.9024
rfoot -4.85403 0.538677
rtoes -5.30177
lfemur 17.6429 -9.56202 -16.0591
ltibia 52.7994
lfoot -1.41388 -5.77704
ltoes -15.5446
55
root 7.81107 15.9893 -0.250154 -728.92 -73.6527 721.611
lowerback 3.66232 -14.2699 -4.60008
upperback 1.42404 -19.1961 -0.363128
thorax 0.839924 -9.6464 2.33225
lowerneck 3.66098 9.38264 2.51024
upperneck 12.8465 12.9183 -7.51428
head 3.91087 6.00548 -2.34765
rclavicle 2.66744e-014 -2.78299e-015
rhumerus -54.8743 -13.9749 -63.843
rradius 27.7756
rwrist 15.4214
rhand -23.1374 12.2209
rfingers 7.12502
rthumb 3.31044 -17.7331
lclavicle 2.66744e-014 -2.78299e-015
lhumerus -44.6432 20.9194 76.25
lradius 91.621
lwrist 187.573
lhand -11.5442 17.6419
lfingers 7.12502
lthumb 14.4962 47.1155
rfemur -37.3575 -3.36032 15.429
rtibia 49.8856
rfoot -5.19728 0.699762
rtoes -5.16809
lfemur 15.6269 -9.11666 -15.4944
ltibia 56.7989
lfoot 2.04397 -4.99996
ltoes -14.3523
56
root 7.6505 16.0198 -0.256199 -727.977 -74.2209 720.208
lowerback 3.77808 -14.0961 -4.08538
upperback 1.59539 -18.9527 -0.352457
thorax 0.781271 -9.52443 2.1352
lowerneck 3.86845 9.34891 3.02174
upperneck 13.0293 12.9273 -8.03513
head 3.99752 6.00414 -2.58683
rclavicle 2.1419e-014 1.59028e-014
rhumerus -53.9024 -13.1858 -65.5529
rradius 28.8408
rwrist 14.9507
rhand -23.796 11.9457
rfingers 7.12502
rthumb 2.67441 -18.0173
lclavicle 2.1419e-014 1.59028e-014
lhumerus -45.6535 20.9757 75.9041
lradius 91.6591
lwrist 188.173
lhand -11.1839 18.1173
lfingers 7.12502
lthumb 14.8434 47.5656
rfemur -36.3766 -3.0077 16.2355
rtibia 49.8558
rfoot -5.52725 0.840548
rtoes -5.16207
lfemur 13.4377 -8.63876 -15.063
ltibia 60.925
lfoot 5.32008 -4.17158
ltoes -13.9973
